# xmcd
#
# Track frame offsets: 
#        150
#        18833
#        36333
#        54458
#        71745
#        91920
#        111158
#        132853
#        153333
#        172858
#        198533
#        223908
#
# Disc length: 3256 seconds
#
# Revision: 2
# Processed by: cddbd v1.5.2PL0 Copyright (c) Steve Scherf et al.
# Submitted via: ExactAudioCopy v0.99pb4
#
DISCID=a40cb60c
DTITLE=Michael Bolton - To Love Somebody - The Best Of [CD 1)
DYEAR=2005
DGENRE=Rock
TTITLE0=To Love Somebody
TTITLE1=(Sittin' On) The Dock Of The Bay
TTITLE2=Fools Game
TTITLE3=Love Cuts Deep
TTITLE4=Let's Stay Together
TTITLE5=The Best Of Love
TTITLE6=In The Arms Of Love
TTITLE7=It's Only My Heart
TTITLE8=You're All That I Need
TTITLE9=Soul Of My Soul
TTITLE10=A Time For Letting Go
TTITLE11=Forever Isn't Long Enough
EXTD=
EXTT0=
EXTT1=
EXTT2=
EXTT3=
EXTT4=
EXTT5=
EXTT6=
EXTT7=
EXTT8=
EXTT9=
EXTT10=
EXTT11=
PLAYORDER=
